<svg xmlns="http://www.w3.org/2000/svg" viewBox="0 0 520 330"><defs><linearGradient id="g"><stop stop-color="#715629"/><stop offset=".5" stop-color="#ddc27b"/><stop offset="1" stop-color="#715629"/></linearGradient><radialGradient id="b" cx=".3" cy=".3"><stop stop-color="#fff"/><stop offset=".3" stop-color="#c9eadc"/><stop offset="1" stop-color="#306858"/></radialGradient></defs><path d="M238 25Q260 13 282 25L454 272Q463 290 440 290H80Q57 290 66 272Z" fill="#0b2b1f" stroke="url(#g)" stroke-width="6"/><g fill="#ceb574"><circle cx="260" cy="76" r="4"/><circle cx="236" cy="110" r="4"/><circle cx="284" cy="110" r="4"/><circle cx="212" cy="144" r="4"/><circle cx="260" cy="144" r="4"/><circle cx="308" cy="144" r="4"/><circle cx="188" cy="178" r="4"/><circle cx="236" cy="178" r="4"/><circle cx="284" cy="178" r="4"/><circle cx="332" cy="178" r="4"/><circle cx="164" cy="212" r="4"/><circle cx="212" cy="212" r="4"/><circle cx="260" cy="212" r="4"/><circle cx="308" cy="212" r="4"/><circle cx="356" cy="212" r="4"/></g><path d="M260 54L239 99L256 131L236 165L214 196L233 237" fill="none" stroke="#96d2b4" stroke-width="3" stroke-dasharray="4 7" opacity=".6"/><circle cx="235" cy="243" r="13" fill="url(#b)"/><g fill="#a18543"><rect x="102" y="259" width="36" height="16" rx="3"/><rect x="144" y="259" width="36" height="16" rx="3"/><rect x="186" y="259" width="36" height="16" rx="3"/><rect x="228" y="259" width="36" height="16" rx="3"/><rect x="270" y="259" width="36" height="16" rx="3"/><rect x="312" y="259" width="36" height="16" rx="3"/><rect x="354" y="259" width="36" height="16" rx="3"/><rect x="396" y="259" width="22" height="16" rx="3"/></g></svg>
